<mxfile host="app.diagrams.net" modified="2020-10-10T02:55:41.124Z" agent="5.0 (Windows NT 10.0; Win64; x64) AppleWebKit/537.36 (KHTML, like Gecko) Chrome/84.0.4147.105 Safari/537.36" etag="sedsuymVoToEzd8Ezyc1" version="13.7.9" type="github">
  <diagram id="LekN2mBB-UYrPSv3pzjn" name="Page-1">
    <mxGraphModel dx="930" dy="755" grid="1" gridSize="10" guides="1" tooltips="1" connect="1" arrows="1" fold="1" page="1" pageScale="1" pageWidth="4681" pageHeight="3300" math="0" shadow="0">
      <root>
        <mxCell id="0" />
        <mxCell id="1" parent="0" />
        <mxCell id="2ZvLKXD8S2Ehz3WB8dBD-10" value="request hello service" style="edgeStyle=none;rounded=0;orthogonalLoop=1;jettySize=auto;html=1;entryX=0.058;entryY=0.963;entryDx=0;entryDy=0;entryPerimeter=0;strokeWidth=2;strokeColor=#CC6600;" edge="1" parent="1" source="2ZvLKXD8S2Ehz3WB8dBD-1" target="2ZvLKXD8S2Ehz3WB8dBD-8">
          <mxGeometry x="0.1424" y="-12" relative="1" as="geometry">
            <mxPoint x="1" as="offset" />
          </mxGeometry>
        </mxCell>
        <mxCell id="2ZvLKXD8S2Ehz3WB8dBD-1" value="Client" style="rounded=1;whiteSpace=wrap;html=1;" vertex="1" parent="1">
          <mxGeometry x="70" y="220" width="90" height="40" as="geometry" />
        </mxCell>
        <mxCell id="2ZvLKXD8S2Ehz3WB8dBD-2" value="" style="rounded=0;whiteSpace=wrap;html=1;" vertex="1" parent="1">
          <mxGeometry x="400" y="180" width="200" height="100" as="geometry" />
        </mxCell>
        <mxCell id="2ZvLKXD8S2Ehz3WB8dBD-3" value="Service Center" style="text;html=1;strokeColor=none;fillColor=none;align=center;verticalAlign=middle;whiteSpace=wrap;rounded=0;" vertex="1" parent="1">
          <mxGeometry x="470" y="290" width="40" height="20" as="geometry" />
        </mxCell>
        <mxCell id="2ZvLKXD8S2Ehz3WB8dBD-16" style="edgeStyle=none;rounded=0;orthogonalLoop=1;jettySize=auto;html=1;entryX=1;entryY=0.25;entryDx=0;entryDy=0;exitX=0.75;exitY=0;exitDx=0;exitDy=0;strokeColor=#6666FF;strokeWidth=2;" edge="1" parent="1" source="2ZvLKXD8S2Ehz3WB8dBD-6" target="2ZvLKXD8S2Ehz3WB8dBD-8">
          <mxGeometry relative="1" as="geometry" />
        </mxCell>
        <mxCell id="2ZvLKXD8S2Ehz3WB8dBD-17" value="return result" style="edgeLabel;html=1;align=center;verticalAlign=middle;resizable=0;points=[];" vertex="1" connectable="0" parent="2ZvLKXD8S2Ehz3WB8dBD-16">
          <mxGeometry x="-0.1637" y="-5" relative="1" as="geometry">
            <mxPoint x="1" as="offset" />
          </mxGeometry>
        </mxCell>
        <mxCell id="2ZvLKXD8S2Ehz3WB8dBD-6" value="HelloService" style="rounded=0;whiteSpace=wrap;html=1;" vertex="1" parent="1">
          <mxGeometry x="420" y="190" width="100" height="45" as="geometry" />
        </mxCell>
        <mxCell id="2ZvLKXD8S2Ehz3WB8dBD-11" style="edgeStyle=none;rounded=0;orthogonalLoop=1;jettySize=auto;html=1;strokeWidth=2;strokeColor=#CC6600;" edge="1" parent="1" source="2ZvLKXD8S2Ehz3WB8dBD-8" target="2ZvLKXD8S2Ehz3WB8dBD-6">
          <mxGeometry relative="1" as="geometry" />
        </mxCell>
        <mxCell id="2ZvLKXD8S2Ehz3WB8dBD-13" value="do service" style="edgeLabel;html=1;align=center;verticalAlign=middle;resizable=0;points=[];" vertex="1" connectable="0" parent="2ZvLKXD8S2Ehz3WB8dBD-11">
          <mxGeometry x="-0.2922" y="-3" relative="1" as="geometry">
            <mxPoint as="offset" />
          </mxGeometry>
        </mxCell>
        <mxCell id="2ZvLKXD8S2Ehz3WB8dBD-14" style="edgeStyle=none;rounded=0;orthogonalLoop=1;jettySize=auto;html=1;entryX=0.25;entryY=0;entryDx=0;entryDy=0;exitX=0;exitY=0.25;exitDx=0;exitDy=0;strokeColor=#6666FF;strokeWidth=2;" edge="1" parent="1" source="2ZvLKXD8S2Ehz3WB8dBD-8" target="2ZvLKXD8S2Ehz3WB8dBD-1">
          <mxGeometry relative="1" as="geometry" />
        </mxCell>
        <mxCell id="2ZvLKXD8S2Ehz3WB8dBD-15" value="return result" style="edgeLabel;html=1;align=center;verticalAlign=middle;resizable=0;points=[];" vertex="1" connectable="0" parent="2ZvLKXD8S2Ehz3WB8dBD-14">
          <mxGeometry x="-0.3645" y="5" relative="1" as="geometry">
            <mxPoint x="-25.63" y="3.88" as="offset" />
          </mxGeometry>
        </mxCell>
        <mxCell id="2ZvLKXD8S2Ehz3WB8dBD-8" value="HelloServiceProxy" style="rounded=0;whiteSpace=wrap;html=1;" vertex="1" parent="1">
          <mxGeometry x="240" y="110" width="120" height="40" as="geometry" />
        </mxCell>
      </root>
    </mxGraphModel>
  </diagram>
</mxfile>
